<?xml version="1.0" encoding="UTF-8"?>
<svg xmlns="http://www.w3.org/2000/svg" width="3200" height="1800" viewBox="0 0 3200 1800" role="img" aria-labelledby="title desc">
  <title id="title">Ekstensi Blueprint RME Gigi dan Akreditasi Mitra Faskes</title>
  <desc id="desc">Wireframe konsultasi dokter gigi dengan odontogram longitudinal dan pusat bukti akreditasi klinik.</desc>
  <defs>
    <filter id="shadow" x="-10%" y="-10%" width="120%" height="130%">
      <feDropShadow dx="0" dy="8" stdDeviation="12" flood-color="#16313A" flood-opacity="0.10"/>
    </filter>
    <style>
      .font { font-family: Inter, "Segoe UI", Arial, sans-serif; fill: #16313A; }
      .white { fill: #FFFFFF; }
      .muted { fill: #607A84; }
      .title { font-size: 42px; font-weight: 700; }
      .h1 { font-size: 28px; font-weight: 700; }
      .h2 { font-size: 22px; font-weight: 700; }
      .h3 { font-size: 18px; font-weight: 700; }
      .body { font-size: 17px; }
      .small { font-size: 14px; }
      .tiny { font-size: 12px; }
      .label { font-size: 13px; font-weight: 700; letter-spacing: .7px; }
      .card { fill: #FFFFFF; stroke: #D7E5EA; stroke-width: 2; }
      .subcard { fill: #F8FBFC; stroke: #D7E5EA; stroke-width: 2; }
      .input { fill: #FFFFFF; stroke: #B8CED6; stroke-width: 2; }
      .divider { stroke: #D7E5EA; stroke-width: 2; }
      .primary { fill: #0B7285; }
      .primaryText { fill: #0B7285; }
      .success { fill: #E6F4EF; stroke: #2D826E; stroke-width: 2; }
      .warning { fill: #FFF4DD; stroke: #B0711F; stroke-width: 2; }
      .danger { fill: #FBECEC; stroke: #B95656; stroke-width: 2; }
      .info { fill: #EBF2FA; stroke: #3F6F9A; stroke-width: 2; }
      .tooth { fill: #FFFFFF; stroke: #B8CED6; stroke-width: 2; }
      .toothSelected { fill: #E1F2F4; stroke: #0B7285; stroke-width: 4; }
    </style>
  </defs>

  <rect width="3200" height="1800" fill="#F5FAFC"/>

  <g id="Page-00-Header">
    <rect x="0" y="0" width="3200" height="160" fill="#143B4A"/>
    <rect x="58" y="46" width="56" height="56" rx="16" fill="#0B7285"/>
    <path d="M76 74h20M86 64v20" stroke="#FFFFFF" stroke-width="7" stroke-linecap="round"/>
    <text x="138" y="82" class="font white title">Ekstensi RME · Gigi &amp; Akreditasi</text>
    <text x="140" y="118" class="font white body" opacity="0.78">Odontogram terstruktur dan longitudinal · evidence-ready, bukan klaim Paripurna</text>
    <rect x="2520" y="45" width="600" height="70" rx="18" fill="#FFFFFF" opacity="0.10"/>
    <text x="2550" y="75" class="font white label">BASELINE 12 AGUSTUS 2026</text>
    <text x="2550" y="102" class="font white body">Target blueprint · belum tersedia di kode</text>
  </g>

  <g id="Page-04B-Dental-Workspace">
    <text x="60" y="215" class="font h1">04B · Konsultasi Gigi &amp; Odontogram</text>
    <text x="60" y="247" class="font body muted">Satu Encounter · temuan per kunjungan · histori final tidak ditimpa</text>

    <rect x="60" y="275" width="2040" height="1450" rx="28" class="card" filter="url(#shadow)"/>

    <g id="Dental-Patient-Context">
      <rect x="90" y="305" width="1980" height="105" rx="20" fill="#143B4A"/>
      <circle cx="145" cy="357" r="28" fill="#E1F2F4"/>
      <text x="135" y="365" class="font h2 primaryText">P</text>
      <text x="190" y="347" class="font white h2">Contoh pasien · data simulasi</text>
      <text x="190" y="379" class="font white small" opacity="0.76">MRN • usia • alergi • Encounter • dokter gigi • durasi tunggu</text>
      <rect x="1320" y="330" width="205" height="48" rx="24" fill="#FFFFFF" opacity="0.12"/>
      <text x="1352" y="361" class="font white small">OUTPATIENT_DENTAL</text>
      <rect x="1545" y="330" width="170" height="48" rx="24" fill="#FFFFFF" opacity="0.12"/>
      <text x="1590" y="361" class="font white small">DRAFT · v3</text>
      <rect x="1735" y="330" width="300" height="48" rx="14" fill="#0B7285"/>
      <text x="1810" y="361" class="font white body">Simpan draft</text>
    </g>

    <g id="Dental-Section-Navigation">
      <rect x="90" y="435" width="1980" height="58" rx="16" fill="#F1F7F9"/>
      <text x="120" y="471" class="font small muted">Anamnesis</text>
      <text x="245" y="471" class="font small muted">Ekstra/Intraoral</text>
      <rect x="395" y="445" width="155" height="38" rx="19" fill="#0B7285"/>
      <text x="427" y="470" class="font white small">Odontogram</text>
      <text x="575" y="471" class="font small muted">Indeks</text>
      <text x="650" y="471" class="font small muted">Diagnosis</text>
      <text x="745" y="471" class="font small muted">Tindakan</text>
      <text x="835" y="471" class="font small muted">Resep</text>
      <text x="900" y="471" class="font small muted">Rencana &amp; Edukasi</text>
      <text x="1055" y="471" class="font small muted">Finalisasi</text>
      <rect x="1645" y="445" width="190" height="38" rx="19" class="warning"/>
      <text x="1670" y="470" class="font tiny" fill="#8B5614">Odontogram belum direview</text>
      <text x="1870" y="471" class="font tiny muted">Tersimpan 10:42</text>
    </g>

    <g id="Dental-Odontogram-Card">
      <rect x="90" y="520" width="1325" height="770" rx="22" class="subcard"/>
      <text x="120" y="565" class="font h2">Odontogram kunjungan ini</text>
      <text x="120" y="594" class="font small muted">Pilih gigi lalu isi temuan; gigi tanpa entry tidak otomatis berarti sehat.</text>
      <rect x="1045" y="540" width="165" height="42" rx="21" class="input"/>
      <text x="1080" y="567" class="font small">Dentisi campuran</text>
      <rect x="1225" y="540" width="155" height="42" rx="21" class="info"/>
      <text x="1254" y="567" class="font small" fill="#3F6F9A">Mode visual</text>

      <text x="120" y="645" class="font label muted">PERMANEN · RAHANG ATAS</text>
      <g id="Permanent-Upper">
        <g><rect x="130" y="665" width="62" height="72" rx="15" class="tooth"/><text x="151" y="710" class="font body">18</text></g>
        <g><rect x="206" y="665" width="62" height="72" rx="15" class="tooth"/><text x="227" y="710" class="font body">17</text></g>
        <g><rect x="282" y="665" width="62" height="72" rx="15" class="toothSelected"/><text x="303" y="710" class="font body primaryText">16</text></g>
        <g><rect x="358" y="665" width="62" height="72" rx="15" class="tooth"/><text x="379" y="710" class="font body">15</text></g>
        <g><rect x="434" y="665" width="62" height="72" rx="15" class="tooth"/><text x="455" y="710" class="font body">14</text></g>
        <g><rect x="510" y="665" width="62" height="72" rx="15" class="tooth"/><text x="531" y="710" class="font body">13</text></g>
        <g><rect x="586" y="665" width="62" height="72" rx="15" class="tooth"/><text x="607" y="710" class="font body">12</text></g>
        <g><rect x="662" y="665" width="62" height="72" rx="15" class="tooth"/><text x="683" y="710" class="font body">11</text></g>
        <path d="M730 665V737" class="divider"/>
        <g><rect x="738" y="665" width="62" height="72" rx="15" class="tooth"/><text x="759" y="710" class="font body">21</text></g>
        <g><rect x="814" y="665" width="62" height="72" rx="15" class="tooth"/><text x="835" y="710" class="font body">22</text></g>
        <g><rect x="890" y="665" width="62" height="72" rx="15" class="tooth"/><text x="911" y="710" class="font body">23</text></g>
        <g><rect x="966" y="665" width="62" height="72" rx="15" class="tooth"/><text x="987" y="710" class="font body">24</text></g>
        <g><rect x="1042" y="665" width="62" height="72" rx="15" class="tooth"/><text x="1063" y="710" class="font body">25</text></g>
        <g><rect x="1118" y="665" width="62" height="72" rx="15" class="tooth"/><text x="1139" y="710" class="font body">26</text></g>
        <g><rect x="1194" y="665" width="62" height="72" rx="15" class="tooth"/><text x="1215" y="710" class="font body">27</text></g>
        <g><rect x="1270" y="665" width="62" height="72" rx="15" class="tooth"/><text x="1291" y="710" class="font body">28</text></g>
      </g>

      <text x="120" y="785" class="font label muted">SULUNG · RAHANG ATAS</text>
      <g id="Primary-Upper">
        <g><rect x="330" y="805" width="70" height="58" rx="14" class="tooth"/><text x="354" y="841" class="font small">55</text></g>
        <g><rect x="416" y="805" width="70" height="58" rx="14" class="tooth"/><text x="440" y="841" class="font small">54</text></g>
        <g><rect x="502" y="805" width="70" height="58" rx="14" class="tooth"/><text x="526" y="841" class="font small">53</text></g>
        <g><rect x="588" y="805" width="70" height="58" rx="14" class="tooth"/><text x="612" y="841" class="font small">52</text></g>
        <g><rect x="674" y="805" width="70" height="58" rx="14" class="tooth"/><text x="698" y="841" class="font small">51</text></g>
        <g><rect x="760" y="805" width="70" height="58" rx="14" class="tooth"/><text x="784" y="841" class="font small">61</text></g>
        <g><rect x="846" y="805" width="70" height="58" rx="14" class="tooth"/><text x="870" y="841" class="font small">62</text></g>
        <g><rect x="932" y="805" width="70" height="58" rx="14" class="tooth"/><text x="956" y="841" class="font small">63</text></g>
        <g><rect x="1018" y="805" width="70" height="58" rx="14" class="tooth"/><text x="1042" y="841" class="font small">64</text></g>
        <g><rect x="1104" y="805" width="70" height="58" rx="14" class="tooth"/><text x="1128" y="841" class="font small">65</text></g>
      </g>

      <path d="M120 890H1380" class="divider"/>

      <g id="Primary-Lower">
        <g><rect x="330" y="920" width="70" height="58" rx="14" class="tooth"/><text x="354" y="956" class="font small">85</text></g>
        <g><rect x="416" y="920" width="70" height="58" rx="14" class="tooth"/><text x="440" y="956" class="font small">84</text></g>
        <g><rect x="502" y="920" width="70" height="58" rx="14" class="tooth"/><text x="526" y="956" class="font small">83</text></g>
        <g><rect x="588" y="920" width="70" height="58" rx="14" class="tooth"/><text x="612" y="956" class="font small">82</text></g>
        <g><rect x="674" y="920" width="70" height="58" rx="14" class="tooth"/><text x="698" y="956" class="font small">81</text></g>
        <g><rect x="760" y="920" width="70" height="58" rx="14" class="tooth"/><text x="784" y="956" class="font small">71</text></g>
        <g><rect x="846" y="920" width="70" height="58" rx="14" class="tooth"/><text x="870" y="956" class="font small">72</text></g>
        <g><rect x="932" y="920" width="70" height="58" rx="14" class="tooth"/><text x="956" y="956" class="font small">73</text></g>
        <g><rect x="1018" y="920" width="70" height="58" rx="14" class="tooth"/><text x="1042" y="956" class="font small">74</text></g>
        <g><rect x="1104" y="920" width="70" height="58" rx="14" class="tooth"/><text x="1128" y="956" class="font small">75</text></g>
      </g>
      <text x="120" y="1025" class="font label muted">PERMANEN · RAHANG BAWAH</text>
      <g id="Permanent-Lower">
        <g><rect x="130" y="1045" width="62" height="72" rx="15" class="tooth"/><text x="151" y="1090" class="font body">48</text></g>
        <g><rect x="206" y="1045" width="62" height="72" rx="15" class="tooth"/><text x="227" y="1090" class="font body">47</text></g>
        <g><rect x="282" y="1045" width="62" height="72" rx="15" class="tooth"/><text x="303" y="1090" class="font body">46</text></g>
        <g><rect x="358" y="1045" width="62" height="72" rx="15" class="tooth"/><text x="379" y="1090" class="font body">45</text></g>
        <g><rect x="434" y="1045" width="62" height="72" rx="15" class="tooth"/><text x="455" y="1090" class="font body">44</text></g>
        <g><rect x="510" y="1045" width="62" height="72" rx="15" class="tooth"/><text x="531" y="1090" class="font body">43</text></g>
        <g><rect x="586" y="1045" width="62" height="72" rx="15" class="tooth"/><text x="607" y="1090" class="font body">42</text></g>
        <g><rect x="662" y="1045" width="62" height="72" rx="15" class="tooth"/><text x="683" y="1090" class="font body">41</text></g>
        <path d="M730 1045V1117" class="divider"/>
        <g><rect x="738" y="1045" width="62" height="72" rx="15" class="tooth"/><text x="759" y="1090" class="font body">31</text></g>
        <g><rect x="814" y="1045" width="62" height="72" rx="15" class="tooth"/><text x="835" y="1090" class="font body">32</text></g>
        <g><rect x="890" y="1045" width="62" height="72" rx="15" class="tooth"/><text x="911" y="1090" class="font body">33</text></g>
        <g><rect x="966" y="1045" width="62" height="72" rx="15" class="tooth"/><text x="987" y="1090" class="font body">34</text></g>
        <g><rect x="1042" y="1045" width="62" height="72" rx="15" class="tooth"/><text x="1063" y="1090" class="font body">35</text></g>
        <g><rect x="1118" y="1045" width="62" height="72" rx="15" class="tooth"/><text x="1139" y="1090" class="font body">36</text></g>
        <g><rect x="1194" y="1045" width="62" height="72" rx="15" class="tooth"/><text x="1215" y="1090" class="font body">37</text></g>
        <g><rect x="1270" y="1045" width="62" height="72" rx="15" class="tooth"/><text x="1291" y="1090" class="font body">38</text></g>
      </g>

      <rect x="120" y="1150" width="1260" height="100" rx="16" class="info"/>
      <text x="145" y="1184" class="font h3" fill="#3F6F9A">Aksesibilitas wajib</text>
      <text x="145" y="1214" class="font small">Setiap gigi memiliki label FDI, state teks, focus ring, target ≥40 px, dan mode daftar.</text>
      <text x="145" y="1238" class="font small muted">Legenda: terpilih ≠ temuan klinis · warna tidak pernah menjadi satu-satunya pembeda.</text>
    </g>

    <g id="Dental-Tooth-Editor">
      <rect x="1440" y="520" width="630" height="770" rx="22" class="card"/>
      <text x="1470" y="565" class="font h2">Editor gigi 16</text>
      <rect x="1900" y="538" width="135" height="40" rx="20" class="info"/>
      <text x="1927" y="564" class="font small" fill="#3F6F9A">Terpilih</text>
      <text x="1470" y="608" class="font label muted">PERMUKAAN</text>
      <g id="Dental-Surface-Editor">
        <rect x="1480" y="635" width="270" height="220" rx="18" class="subcard"/>
        <path d="M1540 670H1690V820H1540Z" fill="#FFFFFF" stroke="#B8CED6" stroke-width="2"/>
        <path d="M1540 670L1590 720M1690 670L1640 720M1540 820L1590 770M1690 820L1640 770" stroke="#B8CED6" stroke-width="2"/>
        <rect x="1590" y="720" width="50" height="50" fill="#E1F2F4" stroke="#0B7285" stroke-width="3"/>
        <text x="1607" y="751" class="font small primaryText">O</text>
        <text x="1608" y="704" class="font tiny muted">B</text>
        <text x="1608" y="798" class="font tiny muted">L</text>
        <text x="1566" y="751" class="font tiny muted">M</text>
        <text x="1658" y="751" class="font tiny muted">D</text>
        <text x="1498" y="840" class="font tiny muted">Contoh focus; belum menyimpan finding</text>
      </g>
      <text x="1780" y="650" class="font label muted">STATUS REVIEW</text>
      <rect x="1780" y="670" width="245" height="46" rx="12" class="warning"/>
      <text x="1800" y="699" class="font small" fill="#8B5614">Belum dikonfirmasi</text>
      <text x="1780" y="755" class="font label muted">CAKUPAN</text>
      <rect x="1780" y="775" width="245" height="46" rx="12" class="input"/>
      <text x="1800" y="804" class="font small muted">Pilih cakupan pemeriksaan</text>

      <text x="1470" y="900" class="font label muted">TEMUAN</text>
      <rect x="1470" y="920" width="565" height="50" rx="12" class="input"/>
      <text x="1490" y="951" class="font small muted">Cari terminologi temuan…</text>
      <text x="1470" y="1005" class="font label muted">RESTORASI / PROTESA / MATERIAL</text>
      <rect x="1470" y="1025" width="565" height="50" rx="12" class="input"/>
      <text x="1490" y="1056" class="font small muted">Tidak ada pilihan otomatis</text>
      <text x="1470" y="1110" class="font label muted">CATATAN KLINIS</text>
      <rect x="1470" y="1130" width="565" height="92" rx="12" class="input"/>
      <text x="1490" y="1160" class="font small muted">Narasi pendukung, bukan pengganti kode terstruktur</text>
      <rect x="1470" y="1240" width="270" height="42" rx="12" class="input"/>
      <text x="1530" y="1267" class="font small">Batalkan perubahan</text>
      <rect x="1765" y="1240" width="270" height="42" rx="12" class="primary"/>
      <text x="1834" y="1267" class="font white small">Tambahkan temuan</text>
    </g>

    <g id="Dental-History-Indices">
      <rect x="90" y="1320" width="940" height="370" rx="22" class="subcard"/>
      <text x="120" y="1365" class="font h2">Riwayat longitudinal</text>
      <text x="120" y="1394" class="font small muted">Bandingkan record final; projection tidak diedit langsung.</text>
      <path d="M145 1445V1630" stroke="#0B7285" stroke-width="3"/>
      <circle cx="145" cy="1470" r="10" fill="#0B7285"/>
      <text x="175" y="1468" class="font h3">Kunjungan ini · DRAFT</text>
      <text x="175" y="1496" class="font small muted">Temuan baru/berubah tampil setelah dikonfirmasi</text>
      <circle cx="145" cy="1550" r="10" fill="#90AAB3"/>
      <text x="175" y="1548" class="font h3">Kunjungan final sebelumnya</text>
      <text x="175" y="1576" class="font small muted">Tanggal · pemeriksa · versi · provenance</text>
      <circle cx="145" cy="1630" r="10" fill="#90AAB3"/>
      <text x="175" y="1628" class="font h3">Riwayat lebih lama</text>
      <text x="175" y="1656" class="font small muted">Tidak pernah hilang saat keadaan terkini berubah</text>

      <rect x="1055" y="1320" width="1015" height="370" rx="22" class="subcard"/>
      <text x="1085" y="1365" class="font h2">Indeks &amp; temuan rongga mulut</text>
      <g><rect x="1085" y="1405" width="215" height="105" rx="16" class="card"/><text x="1105" y="1438" class="font label muted">DMF-T / dmf-t</text><text x="1105" y="1480" class="font h1">—</text></g>
      <g><rect x="1320" y="1405" width="215" height="105" rx="16" class="card"/><text x="1340" y="1438" class="font label muted">OHI-S</text><text x="1340" y="1480" class="font h1">—</text></g>
      <g><rect x="1555" y="1405" width="215" height="105" rx="16" class="card"/><text x="1575" y="1438" class="font label muted">DI-S</text><text x="1575" y="1480" class="font h1">—</text></g>
      <g><rect x="1790" y="1405" width="215" height="105" rx="16" class="card"/><text x="1810" y="1438" class="font label muted">CI-S</text><text x="1810" y="1480" class="font h1">—</text></g>
      <rect x="1085" y="1535" width="920" height="120" rx="16" class="card"/>
      <text x="1105" y="1570" class="font label muted">ORAL FINDINGS</text>
      <text x="1105" y="1602" class="font small">Oklusi · torus · palatum · diastema · anomali · temuan lain</text>
      <text x="1105" y="1630" class="font small muted">Nilai, metode, interpretasi, pemeriksa, dan waktu disimpan terpisah.</text>
    </g>
  </g>

  <g id="Page-08-Accreditation-Evidence">
    <text x="2160" y="215" class="font h1">08 · Akreditasi &amp; Evidence</text>
    <text x="2160" y="247" class="font body muted">Kontrol dan bukti penerapan · keputusan survei tetap eksternal</text>

    <rect x="2160" y="275" width="980" height="1450" rx="28" class="card" filter="url(#shadow)"/>

    <g id="Compliance-Standard-Version">
      <rect x="2190" y="305" width="920" height="150" rx="20" fill="#143B4A"/>
      <text x="2220" y="342" class="font white label">STANDARD VERSION</text>
      <text x="2220" y="379" class="font white h2">Klinik · instrumen resmi aktif</text>
      <text x="2220" y="411" class="font white small" opacity="0.74">Source URL · nomor/tahun · effective period · checked at</text>
      <rect x="2780" y="330" width="290" height="46" rx="23" fill="#FFFFFF" opacity="0.12"/>
      <text x="2827" y="359" class="font white small">Version watch diperlukan</text>
      <text x="2810" y="413" class="font white tiny" opacity="0.74">Facility type tidak boleh tertukar</text>
    </g>

    <g id="Compliance-Paripurna-Boundary">
      <rect x="2190" y="480" width="920" height="110" rx="18" class="warning"/>
      <text x="2220" y="518" class="font h3" fill="#8B5614">Paripurna bukan status software</text>
      <text x="2220" y="548" class="font small">Aplikasi menampilkan kelengkapan evidence, gap, owner, dan tindak lanjut.</text>
      <text x="2220" y="573" class="font tiny muted">Skor dan predikat resmi berasal dari survei lembaga akreditasi.</text>
    </g>

    <g id="Compliance-Chapters">
      <text x="2190" y="635" class="font h2">Bab standar klinik</text>
      <text x="2190" y="664" class="font small muted">Angka di bawah adalah jumlah elemen; bukan hasil penilaian.</text>
      <rect x="2190" y="690" width="285" height="125" rx="18" class="subcard"/>
      <text x="2215" y="724" class="font label primaryText">TKK</text>
      <text x="2215" y="758" class="font h2">— / 19 EP</text>
      <text x="2215" y="789" class="font tiny muted">Tata kelola klinik</text>
      <rect x="2508" y="690" width="285" height="125" rx="18" class="subcard"/>
      <text x="2533" y="724" class="font label primaryText">PMKP</text>
      <text x="2533" y="758" class="font h2">— / 18 EP</text>
      <text x="2533" y="789" class="font tiny muted">Mutu &amp; keselamatan</text>
      <rect x="2825" y="690" width="285" height="125" rx="18" class="subcard"/>
      <text x="2850" y="724" class="font label primaryText">PKP</text>
      <text x="2850" y="758" class="font h2">— / 67 EP</text>
      <text x="2850" y="789" class="font tiny muted">Pelayanan perseorangan</text>
    </g>

    <g id="Compliance-Filters">
      <rect x="2190" y="845" width="215" height="46" rx="12" class="input"/>
      <text x="2210" y="874" class="font small muted">Semua bab</text>
      <rect x="2420" y="845" width="230" height="46" rx="12" class="input"/>
      <text x="2440" y="874" class="font small muted">Semua owner</text>
      <rect x="2665" y="845" width="270" height="46" rx="12" class="input"/>
      <text x="2685" y="874" class="font small muted">Status evidence</text>
      <rect x="2950" y="845" width="160" height="46" rx="12" class="primary"/>
      <text x="2987" y="874" class="font white small">Export pack</text>
    </g>

    <g id="Compliance-Requirement-List">
      <rect x="2190" y="920" width="920" height="370" rx="20" class="subcard"/>
      <text x="2220" y="960" class="font label muted">REQUIREMENT &amp; EVIDENCE</text>

      <rect x="2220" y="985" width="860" height="78" rx="14" class="card"/>
      <rect x="2240" y="1006" width="125" height="34" rx="17" class="success"/>
      <text x="2260" y="1028" class="font tiny" fill="#2D826E">SUPPORTED</text>
      <text x="2390" y="1018" class="font h3">PKP 12 · Rekam medis</text>
      <text x="2390" y="1044" class="font tiny muted">Owner · period · reviewer · source record</text>
      <text x="3000" y="1028" class="font h3 muted">›</text>

      <rect x="2220" y="1075" width="860" height="78" rx="14" class="card"/>
      <rect x="2240" y="1096" width="125" height="34" rx="17" class="warning"/>
      <text x="2264" y="1118" class="font tiny" fill="#8B5614">PARTIAL</text>
      <text x="2390" y="1108" class="font h3">PMKP · Audit mutu RME</text>
      <text x="2390" y="1134" class="font tiny muted">Temuan terbuka · action plan belum selesai</text>
      <text x="3000" y="1118" class="font h3 muted">›</text>

      <rect x="2220" y="1165" width="860" height="78" rx="14" class="card"/>
      <rect x="2240" y="1186" width="125" height="34" rx="17" class="info"/>
      <text x="2253" y="1208" class="font tiny" fill="#3F6F9A">EXTERNAL</text>
      <text x="2390" y="1198" class="font h3">TKK · Sarana dan observasi</text>
      <text x="2390" y="1224" class="font tiny muted">Bukti operasional di luar aplikasi</text>
      <text x="3000" y="1208" class="font h3 muted">›</text>

      <text x="2220" y="1270" class="font tiny muted">Status contoh menjelaskan tipe dukungan, bukan hasil akreditasi.</text>
    </g>

    <g id="Compliance-Evidence-Drawer">
      <rect x="2190" y="1320" width="920" height="370" rx="20" class="card"/>
      <text x="2220" y="1360" class="font h2">Detail evidence · PKP 12</text>
      <text x="2220" y="1390" class="font small muted">Ringkasan kontrol · tautan sumber resmi · versi instrumen</text>
      <path d="M2220 1415H3080" class="divider"/>
      <text x="2220" y="1450" class="font label muted">BUKTI TERKAIT</text>
      <rect x="2220" y="1470" width="420" height="74" rx="14" class="subcard"/>
      <text x="2240" y="1500" class="font h3">Audit kelengkapan RME</text>
      <text x="2240" y="1527" class="font tiny muted">period · sample · reviewer · findings</text>
      <rect x="2660" y="1470" width="420" height="74" rx="14" class="subcard"/>
      <text x="2680" y="1500" class="font h3">SPO dan version history</text>
      <text x="2680" y="1527" class="font tiny muted">approval · effective date · acknowledgement</text>
      <text x="2220" y="1585" class="font label muted">GAP &amp; TINDAK LANJUT</text>
      <rect x="2220" y="1605" width="860" height="56" rx="14" class="warning"/>
      <text x="2240" y="1639" class="font small" fill="#8B5614">Owner dan due date wajib; evidence expired tetap terlihat.</text>
      <text x="2220" y="1682" class="font tiny muted">Export menerapkan minimum necessary, redaction, permission, dan audit.</text>
    </g>
  </g>
</svg>
